HIERARCHY
ROOT hip
{
  OFFSET 0 0 0
  CHANNELS 6 Xposition Yposition Zposition Zrotation Yrotation Xrotation
  JOINT abdomen
  {
    OFFSET 0 20.6881 -0.73152
    CHANNELS 3 Zrotation Xrotation Yrotation
    JOINT chest
    {
      OFFSET 0 11.7043 -0.48768
      CHANNELS 3 Zrotation Xrotation Yrotation
      JOINT neck
      {
        OFFSET 0 22.1894 -2.19456
        CHANNELS 3 Zrotation Xrotation Yrotation
        JOINT head
        {
          OFFSET -0.24384 7.07133 1.2192
          CHANNELS 3 Zrotation Xrotation Yrotation
          JOINT leftEye
          {
            OFFSET 4.14528 8.04674 8.04672
            CHANNELS 3 Zrotation Xrotation Yrotation
            End Site
            {
              OFFSET 1 0 0
            }
          }
          JOINT rightEye
          {
            OFFSET -3.6576 8.04674 8.04672
            CHANNELS 3 Zrotation Xrotation Yrotation
            End Site
            {
              OFFSET 1 0 0
            }
          }
        }
      }
      JOINT rCollar
      {
        OFFSET -2.68224 19.2634 -4.8768
        CHANNELS 3 Zrotation Xrotation Yrotation
        JOINT rShldr
        {
          OFFSET -8.77824 -1.95073 1.46304
          CHANNELS 3 Zrotation Xrotation Yrotation
          JOINT rForeArm
          {
            OFFSET -28.1742 -1.7115 0.48768
            CHANNELS 3 Zrotation Xrotation Yrotation
            JOINT rHand
            {
              OFFSET -22.5879 0.773209 7.07136
              CHANNELS 3 Zrotation Xrotation Yrotation
              JOINT rThumb1
              {
                OFFSET -1.2192 -0.487915 3.41376
                CHANNELS 3 Zrotation Xrotation Yrotation
                JOINT rThumb2
                {
                  OFFSET -3.37035 -0.52449 3.41376
                  CHANNELS 3 Zrotation Xrotation Yrotation
                  End Site
                  {
                    OFFSET -1.78271 -1.18214 1.43049
                  }
                }
              }
              JOINT rIndex1
              {
                OFFSET -7.75947 0.938293 5.60832
                CHANNELS 3 Zrotation Xrotation Yrotation
                JOINT rIndex2
                {
                  OFFSET -2.54057 -0.884171 1.56538
                  CHANNELS 3 Zrotation Xrotation Yrotation
                  End Site
                  {
                    OFFSET -1.62519 -0.234802 1.16502
                  }
                }
              }
              JOINT rMid1
              {
                OFFSET -8.24714 1.18213 3.41376
                CHANNELS 3 Zrotation Xrotation Yrotation
                JOINT rMid2
                {
                  OFFSET -3.10165 -0.590103 1.0647
                  CHANNELS 3 Zrotation Xrotation Yrotation
                  End Site
                  {
                    OFFSET -2.48547 -0.328903 0.83742
                  }
                }
              }
              JOINT rRing1
              {
                OFFSET -8.82822 0.546677 1.51678
                CHANNELS 3 Zrotation Xrotation Yrotation
                JOINT rRing2
                {
                  OFFSET -2.60934 -0.819778 -0.0198488
                  CHANNELS 3 Zrotation Xrotation Yrotation
                  End Site
                  {
                    OFFSET -2.33842 -0.294052 0.168128
                  }
                }
              }
              JOINT rPinky1
              {
                OFFSET -8.27202 -0.0477905 -0.4584
                CHANNELS 3 Zrotation Xrotation Yrotation
                JOINT rPinky2
                {
                  OFFSET -1.82734 -0.647385 -0.700984
                  CHANNELS 3 Zrotation Xrotation Yrotation
                  End Site
                  {
                    OFFSET -1.69225 -0.51767 -0.607171
                  }
                }
              }
            }
          }
        }
      }
      JOINT lCollar
      {
        OFFSET 2.68224 19.2634 -4.8768
        CHANNELS 3 Zrotation Xrotation Yrotation
        JOINT lShldr
        {
          OFFSET 8.77824 -1.95073 1.46304
          CHANNELS 3 Zrotation Xrotation Yrotation
          JOINT lForeArm
          {
            OFFSET 28.1742 -1.7115 0.48768
            CHANNELS 3 Zrotation Xrotation Yrotation
            JOINT lHand
            {
              OFFSET 22.5879 0.773209 7.07136
              CHANNELS 3 Zrotation Xrotation Yrotation
              JOINT lThumb1
              {
                OFFSET 1.2192 -0.487915 3.41376
                CHANNELS 3 Zrotation Xrotation Yrotation
                JOINT lThumb2
                {
                  OFFSET 3.37035 -0.52449 3.41376
                  CHANNELS 3 Zrotation Xrotation Yrotation
                  End Site
                  {
                    OFFSET 1.78271 -1.18214 1.43049
                  }
                }
              }
              JOINT lIndex1
              {
                OFFSET 7.75947 0.938293 5.60832
                CHANNELS 3 Zrotation Xrotation Yrotation
                JOINT lIndex2
                {
                  OFFSET 2.54057 -0.884171 1.56538
                  CHANNELS 3 Zrotation Xrotation Yrotation
                  End Site
                  {
                    OFFSET 1.62519 -0.234802 1.16502
                  }
                }
              }
              JOINT lMid1
              {
                OFFSET 8.24714 1.18213 3.41376
                CHANNELS 3 Zrotation Xrotation Yrotation
                JOINT lMid2
                {
                  OFFSET 3.10165 -0.590103 1.0647
                  CHANNELS 3 Zrotation Xrotation Yrotation
                  End Site
                  {
                    OFFSET 2.48547 -0.328903 0.83742
                  }
                }
              }
              JOINT lRing1
              {
                OFFSET 8.82822 0.546677 1.51678
                CHANNELS 3 Zrotation Xrotation Yrotation
                JOINT lRing2
                {
                  OFFSET 2.60934 -0.819778 -0.0198488
                  CHANNELS 3 Zrotation Xrotation Yrotation
                  End Site
                  {
                    OFFSET 2.33842 -0.294052 0.168128
                  }
                }
              }
              JOINT lPinky1
              {
                OFFSET 8.27202 -0.0477905 -0.4584
                CHANNELS 3 Zrotation Xrotation Yrotation
                JOINT lPinky2
                {
                  OFFSET 1.82734 -0.647385 -0.700984
                  CHANNELS 3 Zrotation Xrotation Yrotation
                  End Site
                  {
                    OFFSET 1.69225 -0.51767 -0.607171
                  }
                }
              }
            }
          }
        }
      }
    }
  }
  JOINT rButtock
  {
    OFFSET -8.77824 4.35084 1.2192
    CHANNELS 3 Zrotation Xrotation Yrotation
    JOINT rThigh
    {
      OFFSET 0 -1.70687 -2.19456
      CHANNELS 3 Zrotation Xrotation Yrotation
      JOINT rShin
      {
        OFFSET 0 -36.8199 0.73152
        CHANNELS 3 Zrotation Xrotation Yrotation
        JOINT rFoot
        {
          OFFSET 0.73152 -45.1104 -5.12064
          CHANNELS 3 Zrotation Xrotation Yrotation
          End Site
          {
            OFFSET -1.1221 -3.69964 12.103
          }
        }
      }
    }
  }
  JOINT lButtock
  {
    OFFSET 8.77824 4.35084 1.2192
    CHANNELS 3 Zrotation Xrotation Yrotation
    JOINT lThigh
    {
      OFFSET 0 -1.70687 -2.19456
      CHANNELS 3 Zrotation Xrotation Yrotation
      JOINT lShin
      {
        OFFSET 0 -36.8199 0.73152
        CHANNELS 3 Zrotation Xrotation Yrotation
        JOINT lFoot
        {
          OFFSET -0.73152 -45.1104 -5.12064
          CHANNELS 3 Zrotation Xrotation Yrotation
          End Site
          {
            OFFSET 1.1221 -3.69964 12.103
          }
        }
      }
    }
  }
}
MOTION
Frames:	4
Frame Time:	0.00833333
-93.8203 75.5466 -83.4905 22.2497 71.4225 44.2431 -6.10975 22.0441 -13.955 7.08873 -0.905185 -3.69551 -11.8394 11.694 -3.28892 30.8646 -50.5464 9.29272 -0.0 0.0 0.0 -0.0 0.0 0.0 1.16006e-13 -9.16704e-15 -1.10456e-13 81.4395 -7.82782 12.0119 -28.3643 -37.8391 80.0181 -4.60243 -50.3071 -9.76003 1.89446e-09 -8.03907e-09 1.1039e-11 3.2637e-09 -1.42764e-08 8.53646e-11 1.89446e-09 -8.03907e-09 1.10271e-11 7.73091 5.47488 0.417314 1.89446e-09 -8.03909e-09 1.10465e-11 2.90554 0.965183 0.102902 1.89447e-09 -8.03911e-09 1.10479e-11 10.2786 0.731801 0.0259123 1.89445e-09 -8.03906e-09 1.10499e-11 2.22167 -0.733487 -0.20892 1.16001e-13 -9.19553e-15 -1.1064e-13 -64.3375 40.0592 -19.499 26.505 -24.8063 -59.024 0.537799 -20.3818 2.99297 -1.0291e-09 4.83026e-10 -1.55574e-09 -1.74876e-09 8.68501e-10 -2.70466e-09 -1.02911e-09 4.8302e-10 -1.55573e-09 -7.73091 5.47488 -0.417314 -1.0291e-09 4.83028e-10 -1.55575e-09 -2.90554 0.965183 -0.102902 -1.0291e-09 4.83025e-10 -1.55575e-09 -10.2786 0.731801 -0.0259123 -1.02909e-09 4.83027e-10 -1.55576e-09 -2.22167 -0.733487 0.20892 -2.03217e-16 0.0 -3.88251e-19 -0.361742 -73.796 0.470521 -2.31126 73.1688 3.63525 -3.22297 -12.8832 -7.78133 2.03217e-16 0.0 3.88251e-19 -7.57551 8.62993 2.53805 -0.183898 19.4835 -1.82996 2.43516 17.3091 -4.9204
-91.1144 75.8981 -83.1245 22.6628 70.7219 44.5058 -5.74326 21.7743 -14.3399 7.11369 -0.796902 -3.79528 -11.4858 11.362 -2.96159 29.5302 -50.5909 9.41739 -0.0 0.0 0.0 -0.0 0.0 0.0 5.09143e-14 2.9899e-13 -1.78012e-13 81.8642 -7.40877 12.2899 -28.1931 -39.2352 82.562 -4.11413 -48.4578 -9.12661 2.75022e-09 -1.05618e-08 -1.85423e-10 4.74876e-09 -1.88118e-08 -2.21805e-10 2.75023e-09 -1.05618e-08 -1.85436e-10 7.73091 5.47488 0.417314 2.75023e-09 -1.05618e-08 -1.85414e-10 2.90554 0.965183 0.102902 2.75023e-09 -1.05619e-08 -1.85413e-10 10.2786 0.731801 0.0259123 2.75021e-09 -1.05618e-08 -1.8541e-10 2.22167 -0.733487 -0.20892 5.0867e-14 2.98954e-13 -1.7821e-13 -65.1211 40.7332 -17.7129 26.3463 -24.3577 -58.2525 0.559544 -20.7606 3.05393 -8.59004e-10 8.28395e-10 -2.04357e-09 -1.44542e-09 1.46655e-09 -3.54352e-09 -8.59015e-10 8.28385e-10 -2.04356e-09 -7.73091 5.47488 -0.417314 -8.5901e-10 8.28395e-10 -2.04358e-09 -2.90554 0.965183 -0.102902 -8.59008e-10 8.28391e-10 -2.04358e-09 -10.2786 0.731801 -0.0259123 -8.58996e-10 8.28393e-10 -2.04359e-09 -2.22167 -0.733487 0.20892 -2.03217e-16 0.0 -3.88251e-19 -0.22335 -73.6899 0.114691 -1.80245 70.3934 3.19916 -2.9129 -13.2798 -6.90315 2.03217e-16 0.0 3.88251e-19 -8.55431 10.9943 1.55907 -0.160123 17.4387 -1.80753 2.13506 17.8474 -3.92398
-88.4835 76.2076 -82.8062 23.764 70.0874 45.4992 -5.64792 21.633 -14.694 7.48182 -0.693761 -3.89968 -11.3319 11.0955 -2.58863 28.3104 -50.7447 9.72938 -0.0 0.0 0.0 -0.0 0.0 0.0 -4.49719e-14 3.74252e-13 -1.01507e-13 81.9058 -6.67199 12.8872 -27.9712 -40.6608 85.0668 -3.58216 -46.1748 -8.40964 3.09857e-09 -1.15561e-08 2.22347e-10 5.34453e-09 -2.05372e-08 4.81975e-10 3.09858e-09 -1.15561e-08 2.22334e-10 7.73091 5.47488 0.417314 3.09858e-09 -1.15561e-08 2.22355e-10 2.90554 0.965183 0.102902 3.09859e-09 -1.15561e-08 2.22354e-10 10.2786 0.731801 0.0259123 3.09857e-09 -1.15561e-08 2.2236e-10 2.22167 -0.733487 -0.20892 -4.5059e-14 3.74234e-13 -1.01749e-13 -66.4005 41.432 -15.7865 26.1311 -23.774 -57.266 0.570031 -20.9346 3.08215 -1.04818e-09 1.669e-09 -4.01484e-09 -1.73846e-09 2.93573e-09 -6.95121e-09 -1.04819e-09 1.66899e-09 -4.01483e-09 -7.73091 5.47488 -0.417314 -1.04819e-09 1.669e-09 -4.01485e-09 -2.90554 0.965183 -0.102902 -1.04819e-09 1.66899e-09 -4.01485e-09 -10.2786 0.731801 -0.0259123 -1.04817e-09 1.66899e-09 -4.01486e-09 -2.22167 -0.733487 0.20892 -2.03217e-16 0.0 -3.88251e-19 -0.657393 -73.4239 -0.923602 -1.45937 67.7872 2.89866 -2.62846 -13.537 -6.22976 2.03217e-16 0.0 3.88251e-19 -9.59704 12.8712 1.01221 -0.156035 16.3969 -1.76537 1.66936 18.3672 -2.42575
-85.8003 76.389 -82.4543 24.6898 69.294 46.1444 -5.74203 21.6034 -15.0045 8.07973 -0.582513 -4.00347 -11.2887 10.8692 -2.18951 27.1709 -51.0057 10.1744 -0.0 0.0 0.0 -0.0 0.0 0.0 -1.70074e-13 3.24258e-13 6.65494e-14 81.6784 -5.70705 13.7558 -27.6528 -42.1283 87.6783 -3.03802 -43.4016 -7.63035 3.14423e-09 -1.15512e-08 9.86837e-10 5.41061e-09 -2.04374e-08 1.78187e-09 3.14424e-09 -1.15511e-08 9.86824e-10 7.73091 5.47488 0.417314 3.14423e-09 -1.15512e-08 9.86842e-10 2.90554 0.965183 0.102902 3.14424e-09 -1.15512e-08 9.86839e-10 10.2786 0.731801 0.0259123 3.14423e-09 -1.15511e-08 9.86849e-10 2.22167 -0.733487 -0.20892 -1.70204e-13 3.24277e-13 6.62419e-14 -68.0648 42.1324 -13.741 25.8437 -23.0354 -56.0928 0.570603 -20.9451 3.08384 -1.45698e-09 2.82766e-09 -6.93833e-09 -2.39508e-09 4.96403e-09 -1.20074e-08 -1.457e-09 2.82764e-09 -6.93831e-09 -7.73091 5.47488 -0.417314 -1.45699e-09 2.82765e-09 -6.93833e-09 -2.90554 0.965183 -0.102902 -1.45699e-09 2.82765e-09 -6.93833e-09 -10.2786 0.731801 -0.0259123 -1.45697e-09 2.82765e-09 -6.93834e-09 -2.22167 -0.733487 0.20892 -2.03217e-16 0.0 -3.88251e-19 -1.54963 -72.9828 -2.52797 -1.21798 65.2876 2.68102 -2.34825 -13.6834 -5.6532 2.03217e-16 0.0 3.88251e-19 -10.7502 14.377 0.780546 -0.159258 16.1545 -1.70641 1.08354 18.6965 -0.651413
